Coordinates
version=1
nRows=24
nColumns=38
inDegrees=no

Units are S.I. units (second, meters, Newtons, ...)
If the header above contains a line with 'inDegrees', this indicates whether rotational values are in degrees (yes) or radians (no).

endheader
time	pelvis_tilt	pelvis_list	pelvis_rotation	pelvis_tx	pelvis_ty	pelvis_tz	hip_flexion_r	hip_adduction_r	hip_rotation_r	knee_angle_r	ankle_angle_r	subtalar_angle_r	mtp_angle_r	hip_flexion_l	hip_adduction_l	hip_rotation_l	knee_angle_l	ankle_angle_l	subtalar_angle_l	mtp_angle_l	lumbar_extension	lumbar_bending	lumbar_rotation	arm_flex_r	arm_add_r	arm_rot_r	elbow_flex_r	pro_sup_r	wrist_flex_r	wrist_dev_r	arm_flex_l	arm_add_l	arm_rot_l	elbow_flex_l	pro_sup_l	wrist_flex_l	wrist_dev_l
0.51	2.60206	1.48323	-1.085	0.644134	1.1464	1.00892	-0.394302	0.0855576	0.0227821	0	-0.129065	0	0	0.376586	-0.142398	-0.32699	0.555187	-0.0092624	0	0	-0.274509	0.088104	0.188325	-0.185761	-0.312692	0.328354	0.469888	1.00849	0	0	-0.0433232	-0.254468	0.837741	0.219995	1.30976	0	0
0.52	2.61242	1.47987	-1.10275	0.644471	1.15941	1.00769	-0.404958	0.0829936	0.026034	0	-0.0594959	0	0	0.375572	-0.144873	-0.330507	0.58422	-0.0200651	0	0	-0.275472	0.082237	0.187917	-0.180415	-0.307926	0.340053	0.463303	0.993897	0	0	-0.0484608	-0.252465	0.787792	0.218827	1.33708	0	0
0.53	2.66339	1.46913	-1.16099	0.64468	1.1725	1.00725	-0.426552	0.0787682	0.0315596	0	-0.168206	0	0	0.359601	-0.143546	-0.32621	0.601406	-0.0243248	0	0	-0.280498	0.0774574	0.210972	-0.194679	-0.305976	0.340567	0.468989	0.971962	0	0	-0.0303896	-0.266545	0.939977	0.227269	1.20894	0	0
0.54	2.6931	1.46432	-1.19796	0.644755	1.18594	1.00666	-0.438138	0.0724686	0.0382338	0	-0.174651	0	0	0.350416	-0.141799	-0.326303	0.618437	-0.0361251	0	0	-0.281166	0.0706433	0.215605	-0.1951	-0.300287	0.343	0.463859	0.969988	0	0	-0.0288822	-0.269206	0.948677	0.227658	1.19835	0	0
0.55	2.75136	1.45885	-1.2633	0.644659	1.19931	1.0068	-0.441765	0.0624607	0.0323968	0.0327321	-0.175825	0	0	0.339607	-0.139404	-0.33717	0.631024	-0.0580297	0	0	-0.28417	0.0601413	0.218283	-0.192336	-0.293973	0.34906	0.455689	0.9662	0	0	-0.0265292	-0.271753	0.95457	0.227078	1.18975	0	0
0.56	2.81884	1.45399	-1.33619	0.644413	1.21265	1.00744	-0.438523	0.050395	0.0233925	0.081659	-0.172277	0	0	0.330762	-0.137585	-0.348386	0.641508	-0.0889278	0	0	-0.286814	0.0474587	0.218136	-0.187645	-0.286866	0.357821	0.445651	0.960583	0	0	-0.0237979	-0.274308	0.956014	0.225431	1.18489	0	0
0.57	2.87364	1.45176	-1.39355	0.64393	1.22607	1.00813	-0.428959	0.0389689	0.0186652	0.134921	-0.172432	0	0	0.325828	-0.136033	-0.345633	0.651563	-0.117249	0	0	-0.28589	0.0357427	0.215901	-0.183997	-0.279603	0.365375	0.436438	0.954709	0	0	-0.0206644	-0.276847	0.955142	0.223109	1.1841	0	0
0.58	2.9131	1.45486	-1.43296	0.64307	1.23955	1.0086	-0.406033	0.0283359	0.0138374	0.203243	-0.156307	0	0	0.327916	-0.133687	-0.333361	0.664043	-0.137339	0	0	-0.282416	0.0250459	0.201882	-0.172175	-0.274413	0.389367	0.424107	0.943475	0	0	-0.0267713	-0.271889	0.848383	0.215675	1.29129	0	0
0.59	2.95588	1.45776	-1.4734	0.64192	1.25294	1.00921	-0.379744	0.017693	0.0136552	0.276283	-0.159866	0	0	0.330478	-0.130104	-0.321924	0.678596	-0.148886	0	0	-0.273134	0.0165136	0.198647	-0.168592	-0.272484	0.425962	0.414083	0.899655	0	0	-0.020264	-0.277079	0.88434	0.214994	1.25363	0	0
0.6	3.00494	1.45931	-1.51869	0.640526	1.26604	1.01013	-0.351345	0.00679292	0.0194876	0.352581	-0.182424	0	0	0.330537	-0.124114	-0.311652	0.689731	-0.161269	0	0	-0.270069	0.00870748	0.193001	-0.172058	-0.264628	0.400851	0.41315	0.927868	0	0	-0.0136489	-0.278559	0.873488	0.212948	1.26921	0	0
0.61	3.0605	1.46877	-1.56986	0.63905	1.27902	1.01042	-0.305552	-0.00480133	0.0321136	0.447281	-0.193834	0	0	0.337756	-0.115004	-0.299498	0.697564	-0.172905	0	0	-0.25549	0.000748862	0.186424	-0.171515	-0.260006	0.408471	0.405632	0.922253	0	0	-0.00790556	-0.281934	0.880037	0.21194	1.26501	0	0
0.62	3.13276	1.48601	-1.63829	0.637685	1.2918	1.00994	-0.248192	-0.0157013	0.0689396	0.548517	-0.202044	0	0	0.351135	-0.104598	-0.287771	0.70325	-0.178571	0	0	-0.230944	-0.00693465	0.179568	-0.171173	-0.255213	0.417126	0.396303	0.918138	0	0	-0.00385619	-0.285785	0.883758	0.211606	1.26335	0	0
0.63	-3.02402	1.50781	-1.76046	0.636301	1.30457	1.009	-0.182271	-0.0245801	0.0917456	0.643625	-0.227495	0	0	0.366678	-0.0926323	-0.278278	0.707414	-0.16826	0	0	-0.204003	-0.0150714	0.158092	-0.162693	-0.251187	0.433032	0.385234	0.919518	0	0	-0.0140038	-0.28131	0.745542	0.208856	1.39328	0	0
0.64	-2.83564	1.51704	-1.94451	0.635188	1.31711	1.0089	-0.132799	-0.0332115	0.102512	0.722299	-0.257492	0	0	0.365918	-0.082242	-0.286309	0.708816	-0.168354	0	0	-0.17997	-0.0231871	0.16347	-0.174497	-0.245801	0.419698	0.382699	0.930264	0	0	0.00217734	-0.297402	0.886636	0.218722	1.259	0	0
0.65	-2.57968	1.52309	-2.1955	0.634009	1.32935	1.00891	-0.0825552	-0.0418301	0.108531	0.794184	-0.319405	0	0	0.362032	-0.0697554	-0.294822	0.70679	-0.158143	0	0	-0.163351	-0.0323339	0.155507	-0.179352	-0.242636	0.403747	0.385196	0.951959	0	0	0.00747714	-0.305011	0.882705	0.227237	1.26138	0	0
0.66	-2.31559	1.52292	-2.45511	0.632952	1.34121	1.0092	-0.0338261	-0.0505449	0.113239	0.859697	-0.381524	0	0	0.352835	-0.0565086	-0.307166	0.701514	-0.148834	0	0	-0.151743	-0.0425637	0.148647	-0.184123	-0.24211	0.393243	0.392065	0.966893	0	0	0.01447	-0.314162	0.87783	0.239297	1.26511	0	0
0.67	-1.97531	1.52086	-2.79096	0.631951	1.35284	1.00895	0.0236922	-0.059727	0.116105	0.922333	-0.476046	0	0	0.34969	-0.0421262	-0.317689	0.69796	-0.133684	0	0	-0.134594	-0.0536838	0.139964	-0.191058	-0.241585	0.374416	0.402974	0.990096	0	0	0.0179427	-0.325329	0.860407	0.256486	1.27898	0	0
0.68	-1.8339	1.51471	-2.9263	0.630894	1.36413	1.00951	0.0676914	-0.0666363	0.118067	0.976916	-0.506843	0	0	0.338001	-0.0303749	-0.329369	0.69355	-0.124827	0	0	-0.128453	-0.0625938	0.131578	-0.197154	-0.245292	0.367096	0.418673	0.995589	0	0	0.0255561	-0.337416	0.851605	0.276114	1.28545	0	0
0.69	-1.80477	1.50996	-2.94744	0.62976	1.37521	1.01068	0.101449	-0.070659	0.118636	1.02284	-0.511336	0	0	0.32184	-0.0218231	-0.337607	0.688878	-0.119565	0	0	-0.128386	-0.0679374	0.12141	-0.201054	-0.250003	0.36303	0.433003	0.997654	0	0	0.0352554	-0.347735	0.84212	0.293343	1.29076	0	0
0.7	-1.72974	1.50632	-3.01381	0.628803	1.38596	1.01133	0.142892	-0.0741771	0.116543	1.07103	-0.498851	0	0	0.311015	-0.0135418	-0.338142	0.684345	-0.111956	0	0	-0.12195	-0.0728081	0.121247	-0.21469	-0.253316	0.344959	0.452703	1.00374	0	0	0.0574187	-0.366381	0.914836	0.316799	1.22898	0	0
0.71	-1.71715	1.50577	-3.017	0.627761	1.39651	1.01253	0.17891	-0.0740132	0.110514	1.11021	-0.484308	0	0	0.297256	-0.00947496	-0.334173	0.678002	-0.109677	0	0	-0.122792	-0.0734871	0.111948	-0.218481	-0.259513	0.344263	0.466966	1.00238	0	0	0.070776	-0.377561	0.913463	0.335506	1.23551	0	0
0.72	-1.71987	1.50744	-3.00449	0.626743	1.4069	1.01387	0.213667	-0.0719935	0.101169	1.1464	-0.469702	0	0	0.283831	-0.00821248	-0.325295	0.670724	-0.109899	0	0	-0.124594	-0.0713986	0.102255	-0.220376	-0.265849	0.346397	0.478157	0.998981	0	0	0.0849561	-0.387396	0.911793	0.352262	1.2449	0	0
0.73	-1.77506	1.51064	-2.93952	0.625831	1.41715	1.01544	0.243946	-0.0690376	0.0887036	1.17601	-0.476667	0	0	0.268248	-0.0105299	-0.3159	0.663794	-0.112427	0	0	-0.127349	-0.0664773	0.102413	-0.231009	-0.264474	0.310131	0.488632	1.03245	0	0	0.1151	-0.396316	0.977354	0.361504	1.19266	0	0
0.74	-1.74591	1.51583	-2.95801	0.624799	1.4275	1.01666	0.280298	-0.0672435	0.0741623	1.2027	-0.44631	0	0	0.259082	-0.0123106	-0.299316	0.655167	-0.114257	0	0	-0.12881	-0.0612505	0.0821846	-0.218935	-0.279353	0.363456	0.491634	0.982287	0	0	0.112848	-0.403201	0.89605	0.381366	1.27721	0	0
